<?xml version="1.0" encoding="UTF-8"?>
<svg width="149px" height="26px" viewBox="0 0 149 26" version="1.1" xmlns="http://www.w3.org/2000/svg" xmlns:xlink="http://www.w3.org/1999/xlink">
    <title>Black</title>
    <g id="Page-1" stroke="none" stroke-width="1" fill="none" fill-rule="evenodd">
        <g id="powered-by-CleverTap" transform="translate(-696.000000, -348.000000)">
            <g id="Black" transform="translate(696.000000, 348.000000)">
                <g id="Group" transform="translate(79.000000, 0.000000)" fill-rule="nonzero">
                    <g id="Atoms/Logo/Default-Copy-2">
                        <path d="M8.02666667,0.525365079 C8.18155816,0.775938083 8.23122933,1.07833291 8.16472713,1.36586805 C8.09822492,1.65340319 7.92101124,1.90246302 7.67216374,2.05812698 C2.24270641,5.47172065 0.578794963,12.6720598 3.95274854,18.1533651 C5.57012597,20.7910329 8.16719088,22.6665301 11.1647953,23.361619 C14.1584005,24.0735072 17.3100842,23.5483226 19.9172515,21.9031429 C20.4349395,21.5799518 21.1143971,21.7397616 21.4367836,22.2605397 C21.7580636,22.7824123 21.5998694,23.4679788 21.0830994,23.7933016 C18.9056059,25.1662328 16.3893818,25.894945 13.8211111,25.8964127 C12.7581614,25.8957112 11.6987933,25.7721963 10.6637427,25.5282857 C7.09558047,24.7002541 4.00424917,22.4675964 2.07871345,19.3279048 C-1.93750011,12.802785 0.043395601,4.23148063 6.50672515,0.167968254 C7.02449914,-0.155503396 7.70426465,0.00433566941 8.02666667,0.525365079 Z M23.4590058,19.9824444 C24.0974599,19.9824444 24.6150292,20.5042388 24.6150292,21.1479048 C24.6150292,21.7915707 24.0974599,22.3133651 23.4590058,22.3133651 C22.8205518,22.3133651 22.3029825,21.7915707 22.3029825,21.1479048 C22.3029825,20.5042388 22.8205518,19.9824444 23.4590058,19.9824444 Z" id="Combined-Shape" fill="#F04444"></path>
                        <path d="M66.7865497,9.3352381 C68.5136257,9.33688889 69.9316374,10.8312698 69.9316374,12.7676508 C69.9316374,14.7040317 68.5140351,16.198 66.7865497,16.198 C65.979473,16.2398388 65.2019946,15.886349 64.6988304,15.2487937 L64.6988304,18.6143492 L63.0364327,18.6143492 L63.0364327,9.51806349 L64.6988304,9.51806349 L64.6988304,10.2844444 C65.2020375,9.64694475 65.979486,9.2934686 66.7865497,9.3352381 Z M14.5403509,6.73771429 C16.1175163,6.71689638 17.5899906,7.53143384 18.4198246,8.88374603 L16.8859649,9.78012698 C16.4015512,8.94412797 15.5000346,8.44480139 14.5403509,8.48095238 C13.7463627,8.4426524 12.9736929,8.74663616 12.4152992,9.31699021 C11.8569056,9.88734427 11.5655018,10.6702258 11.6138596,11.470127 C11.5683105,12.2680543 11.8610995,13.0479297 12.4192903,13.6154788 C12.977481,14.1830279 13.7485261,14.4848225 14.5403509,14.4456825 C15.4973665,14.4843511 16.3982062,13.9903128 16.8859649,13.1593016 L18.4198246,14.0560952 C17.5943752,15.4130556 16.1190497,16.2291702 14.5403509,16.202127 C13.2861497,16.2330425 12.0742421,15.7440863 11.1874711,14.8493744 C10.3007001,13.9546625 9.81665454,12.7324784 9.84830409,11.4680635 C9.8154209,10.2036251 10.299193,8.98108432 11.1863511,8.08668413 C12.0735092,7.19228395 13.2861509,6.70456266 14.5403509,6.73771429 Z M25.7927485,9.33688889 C27.7003509,9.33688889 29.0536842,10.8572698 29.0536842,12.7676508 C29.0527258,12.9985872 29.0312166,13.2289711 28.9894152,13.4560317 L24.1295322,13.4560317 C24.3624561,14.3140317 25.071462,14.677619 25.9474854,14.677619 C26.5027722,14.6992687 27.0364293,14.4591686 27.3912865,14.0280317 L28.7319298,14.807619 C28.0915003,15.7237082 27.0322801,16.2477641 25.9216959,16.198 C23.7561988,16.198 22.3897661,14.7040317 22.3897661,12.7676508 C22.3581186,11.848346 22.7064731,10.9570573 23.3516444,10.3066193 C23.9968157,9.65618122 24.8808875,9.30498308 25.7927485,9.33688889 Z M39.637193,9.33688889 C41.5447953,9.33688889 42.8981287,10.8572698 42.8981287,12.7676508 C42.8971883,12.9986072 42.8755407,13.2290051 42.8334503,13.4560317 L37.974386,13.4560317 C38.2069006,14.3140317 38.9171345,14.677619 39.7919298,14.677619 C40.3472166,14.6992687 40.8808738,14.4591686 41.235731,14.0280317 L42.5763743,14.807619 C41.9360471,15.7238291 40.8767568,16.2479197 39.7661404,16.198 C37.6010526,16.198 36.2342105,14.7040317 36.2342105,12.7676508 C36.202686,11.8483811 36.55108,10.9571654 37.1962237,10.3067552 C37.8413674,9.65634502 38.7253668,9.305107 39.637193,9.33688889 Z M59.8643275,10.2869206 L59.8643275,9.52053968 L61.5275439,9.51888889 L61.5275439,16.016 L59.8643275,16.016 L59.8643275,15.249619 C59.3521289,15.8828624 58.5732022,16.2348024 57.7635088,16.1988254 C56.0491228,16.1988254 54.6315205,14.7048571 54.6315205,12.7684762 C54.6315205,10.8320952 56.0491228,9.33771429 57.7635088,9.33771429 C58.5731897,9.30180337 59.3520883,9.65373066 59.8643275,10.2869206 Z M21.2046784,6.53012698 L21.2046784,16.0164127 L19.5418713,16.0164127 L19.5418713,6.53012698 L21.2046784,6.53012698 Z M31.0669006,9.51888889 L32.6265497,14.0672381 L34.1992982,9.51888889 L36.0291228,9.51888889 L33.5803509,16.0168254 L31.685848,16.0168254 L29.2366667,9.51888889 L31.0669006,9.51888889 Z M55.2238596,6.91971429 L55.2238596,8.63530159 L52.7877778,8.63530159 L52.7877778,16.0164127 L51.0091228,16.0164127 L51.0091228,8.63530159 L48.5861404,8.63530159 L48.5861404,6.91971429 L55.2238596,6.91971429 Z M49.2407018,11.8238095 L47.5987719,12.0569841 C47.4587719,11.0599048 46.7702339,10.9922222 46.4820468,11.0132698 L45.7415205,11.0132698 L45.7419298,16.0164127 L44.0836257,16.0164127 L44.0836257,9.34390476 L46.3821637,9.34390476 C47.8468623,9.24485712 49.119462,10.3488922 49.2407018,11.8238095 Z M58.0729825,10.9352698 C57.5901163,10.9208047 57.123246,11.1105472 56.7853313,11.4585888 C56.4474166,11.8066304 56.2692424,12.2812638 56.2939181,12.7676508 C56.2693607,13.2539681 56.4475875,13.7284906 56.7854885,14.0764398 C57.1233895,14.4243889 57.5901912,14.614076 58.0729825,14.599619 C58.5574786,14.6164923 59.0268312,14.4279785 59.3670886,14.0798458 C59.7073459,13.7317132 59.88739,13.2558 59.8635088,12.7676508 L59.8643275,12.7676508 C59.8883424,12.2792834 59.7082417,11.8031222 59.3677879,11.4548693 C59.0273342,11.1066165 58.557693,10.9181517 58.0729825,10.9352698 Z M66.4774854,10.9352698 C65.9946893,10.9209223 65.5279286,11.1107166 65.190105,11.4587444 C64.8522814,11.8067723 64.6741618,12.2813376 64.6988304,12.7676508 C64.6742801,13.2538943 64.8524522,13.7283488 65.1902622,14.0762842 C65.5280721,14.4242196 65.9947642,14.6139584 66.4774854,14.599619 C66.9620875,14.6167376 67.4316248,14.4283163 67.7720018,14.0801408 C68.1123789,13.7319652 68.2924363,13.2559087 68.2684211,12.7676508 L68.2688304,12.7676508 C68.2928453,12.2792834 68.1127446,11.8031222 67.7722909,11.4548693 C67.4318371,11.1066165 66.962196,10.9181517 66.4774854,10.9352698 Z M24.1061988,12.1564444 L27.3912865,12.1564444 C27.2604747,11.3774879 26.5779603,10.8164332 25.7947953,10.8440635 C24.9836908,10.7879541 24.2587763,11.3513592 24.1061988,12.1564444 Z M37.9506433,12.1564444 L41.235731,12.1564444 C41.1049192,11.3774879 40.4224048,10.8164332 39.6392398,10.8440635 C38.8281352,10.7879541 38.1032207,11.3513592 37.9506433,12.1564444 Z" id="Combined-Shape" fill="#101727"></path>
                    </g>
                </g>
                <text id="Powered-by-Copy-2" font-family="ProximaNova-Semibold, Proxima Nova" font-size="14" font-weight="500" letter-spacing="-0.01" fill="#101727">
                    <tspan x="0" y="16">Powered by</tspan>
                </text>
            </g>
        </g>
    </g>
</svg>